<?xml version="1.0" standalone="no"?>
<!DOCTYPE svg PUBLIC "-//W3C//DTD SVG 20010904//EN"
 "http://www.w3.org/TR/2001/REC-SVG-20010904/DTD/svg10.dtd">
<svg version="1.0" xmlns="http://www.w3.org/2000/svg"
 width="40" height="40" viewBox="0 0 512.000000 512.000000"
 preserveAspectRatio="xMidYMid meet">

<g transform="translate(0.000000,512.000000) scale(0.100000,-0.100000)"
fill="#ffffff" stroke="none">
<path d="M2360 4920 c-444 -40 -871 -205 -1229 -473 -249 -187 -492 -467 -642
-742 -200 -364 -293 -728 -293 -1145 0 -386 75 -706 245 -1050 128 -258 267
-448 476 -650 192 -187 371 -311 618 -431 752 -364 1637 -304 2335 159 203
135 435 353 576 542 332 443 506 998 480 1525 -17 341 -93 638 -241 940 -345
709 -1013 1195 -1799 1310 -133 19 -396 27 -526 15z m530 -144 c510 -84 933
-303 1280 -662 271 -281 457 -612 554 -986 57 -217 70 -326 70 -563 1 -239
-14 -361 -69 -571 -204 -782 -817 -1395 -1600 -1599 -209 -55 -331 -70 -570
-69 -237 0 -346 13 -560 69 -682 177 -1243 668 -1508 1320 -69 170 -113 332
-148 550 -18 106 -18 484 0 590 87 543 299 960 667 1315 373 360 829 568 1369
624 84 9 424 -3 515 -18z"/>
<path d="M1655 4030 c-120 -24 -294 -105 -372 -174 -92 -81 -184 -241 -224
-391 -15 -59 -21 -111 -22 -195 0 -101 4 -128 32 -224 72 -246 210 -539 364
-774 296 -451 708 -817 1194 -1061 134 -67 358 -154 478 -186 90 -25 111 -27
225 -22 151 6 214 21 345 87 166 82 246 164 326 335 67 142 102 360 67 408
-13 17 -791 287 -828 287 -23 0 -50 -35 -124 -162 -70 -120 -91 -138 -163
-138 -143 0 -329 109 -585 343 -383 350 -591 709 -488 840 10 13 67 52 127 87
132 77 143 86 143 119 0 31 -254 796 -271 817 -13 16 -152 18 -224 4z m244
-447 c61 -181 111 -332 111 -338 0 -5 -44 -35 -97 -65 -144 -83 -183 -139
-183 -267 0 -194 157 -451 465 -758 246 -247 491 -416 655 -454 75 -17 170
-13 220 10 63 28 82 49 148 161 31 54 62 98 67 98 6 0 157 -50 338 -111 l327
-112 0 -32 c0 -82 -59 -249 -122 -348 -80 -124 -296 -231 -493 -243 -84 -6
-99 -3 -210 31 -484 148 -884 391 -1236 751 -313 322 -524 666 -671 1098 -44
127 -52 165 -56 241 -11 249 120 491 319 588 85 42 203 76 265 76 l42 1 111
-327z"/>
</g>
</svg>
